<mxGraphModel dx="0" dy="0" grid="1" gridSize="10" guides="1" tooltips="1" connect="1" arrows="1" fold="1" page="0" pageScale="1" background="none" math="0" shadow="0">
  <root>
    <mxCell id="0" />
    <mxCell id="1" parent="0" />
    <mxCell id="node6" parent="1" vertex="1" value="&lt;p style=&quot;margin:0px;margin-top:4px;text-align:center;&quot;&gt;&lt;b&gt;int_dim_accounts&lt;/b&gt;&lt;/p&gt;&lt;hr size=&quot;1&quot;/&gt;&lt;p style=&quot;margin:0 0 0 4px;line-height:1.6;&quot;&gt; account_id: text&lt;br/&gt; customer_id: text&lt;br/&gt; account_number: text&lt;br/&gt; account_type: text&lt;br/&gt; pin: text&lt;br/&gt; cvv: bigint&lt;br/&gt; account_opened_date: date&lt;br/&gt; closed_date: text&lt;br/&gt; account_status: text&lt;br/&gt; branch_id: text&lt;br/&gt; full_name: text&lt;br/&gt; age: integer&lt;br/&gt; gender: text&lt;br/&gt; customer_register_date: date&lt;br/&gt; branch_province: text&lt;br/&gt; branch_name: text&lt;/p&gt;" style="verticalAlign=top;align=left;overflow=fill;fontSize=14;fontFamily=Helvetica;html=1;rounded=0;shadow=0;comic=0;labelBackgroundColor=none;strokeWidth=1;">
      <mxGeometry x="613" y="685" width="225" height="423" as="geometry" />
    </mxCell>
    <mxCell id="node7" parent="1" vertex="1" value="&lt;p style=&quot;margin:0px;margin-top:4px;text-align:center;&quot;&gt;&lt;b&gt;int_dim_custormers&lt;/b&gt;&lt;/p&gt;&lt;hr size=&quot;1&quot;/&gt;&lt;p style=&quot;margin:0 0 0 4px;line-height:1.6;&quot;&gt; customer_id: text&lt;br/&gt; identity_id: text&lt;br/&gt; last_name: text&lt;br/&gt; first_name: text&lt;br/&gt; full_name: text&lt;br/&gt; date_of_birth: text&lt;br/&gt; age: integer&lt;br/&gt; gender: text&lt;br/&gt; address: text&lt;br/&gt; status: text&lt;br/&gt; hometown: text&lt;br/&gt; phone: text&lt;br/&gt; email: text&lt;br/&gt; customer_register_date: date&lt;br/&gt; customer_type: text&lt;/p&gt;" style="verticalAlign=top;align=left;overflow=fill;fontSize=14;fontFamily=Helvetica;html=1;rounded=0;shadow=0;comic=0;labelBackgroundColor=none;strokeWidth=1;">
      <mxGeometry x="353" y="1357" width="225" height="399" as="geometry" />
    </mxCell>
    <mxCell id="node15" parent="1" vertex="1" value="&lt;p style=&quot;margin:0px;margin-top:4px;text-align:center;&quot;&gt;&lt;b&gt;int_fact_customers&lt;/b&gt;&lt;/p&gt;&lt;hr size=&quot;1&quot;/&gt;&lt;p style=&quot;margin:0 0 0 4px;line-height:1.6;&quot;&gt; customer_id: text&lt;br/&gt; identity_id: text&lt;br/&gt; last_name: text&lt;br/&gt; first_name: text&lt;br/&gt; full_name: text&lt;br/&gt; date_of_birth: text&lt;br/&gt; age: integer&lt;br/&gt; gender: text&lt;br/&gt; address: text&lt;br/&gt; status: text&lt;br/&gt; hometown: text&lt;br/&gt; phone: text&lt;br/&gt; email: text&lt;br/&gt; customer_register_date: date&lt;br/&gt; customer_type: text&lt;br/&gt; first_loan_date: date&lt;br/&gt; loan_count: bigint&lt;br/&gt; origin_principal: double precision&lt;br/&gt; total_interest: numeric&lt;br/&gt; paid_interest: numeric&lt;br/&gt; unpaid_loan_amount: double precision&lt;br/&gt; unpaid_loan_count: bigint&lt;br/&gt; first_savings_date: date&lt;br/&gt; savings_count: bigint&lt;br/&gt; origin_deposit_amount: double precision&lt;br/&gt; matured_deposit_amount: double precision&lt;br/&gt; customer_segment: text&lt;br/&gt; nav: bigint&lt;br/&gt; total_balance: bigint&lt;br/&gt; deposit: bigint&lt;br/&gt; withdraw: bigint&lt;/p&gt;" style="verticalAlign=top;align=left;overflow=fill;fontSize=14;fontFamily=Helvetica;html=1;rounded=0;shadow=0;comic=0;labelBackgroundColor=none;strokeWidth=1;">
      <mxGeometry x="-586" y="939" width="312" height="783" as="geometry" />
    </mxCell>
    <mxCell id="node4" parent="1" vertex="1" value="&lt;p style=&quot;margin:0px;margin-top:4px;text-align:center;&quot;&gt;&lt;b&gt;int_fact_loans&lt;/b&gt;&lt;/p&gt;&lt;hr size=&quot;1&quot;/&gt;&lt;p style=&quot;margin:0 0 0 4px;line-height:1.6;&quot;&gt; loan_id: text&lt;br/&gt; customer_id: text&lt;br/&gt; loan_service: text&lt;br/&gt; loan_type: text&lt;br/&gt; loan_amount: double precision&lt;br/&gt; interest_rate: double precision&lt;br/&gt; term: integer&lt;br/&gt; created_date: date&lt;br/&gt; start_date: date&lt;br/&gt; end_date: text&lt;br/&gt; status: text&lt;br/&gt; due_principal: numeric&lt;br/&gt; due_interest: numeric&lt;br/&gt; paid_principal: numeric&lt;br/&gt; paid_interest: numeric&lt;br/&gt; undue_principal: numeric&lt;br/&gt; undue_interest: numeric&lt;br/&gt; overdue_principal: numeric&lt;br/&gt; overdue_interest: numeric&lt;br/&gt; to_collect_principal: numeric&lt;br/&gt; to_collect_interest: numeric&lt;br/&gt; interest_on_overdue_loan: numeric&lt;br/&gt; unpaid_principal: numeric&lt;br/&gt; unpaid_interest: numeric&lt;br/&gt; description: text&lt;br/&gt; release_time: text&lt;br/&gt; overdue_date: date&lt;br/&gt; disbursement_date: text&lt;br/&gt; modified_time: text&lt;br/&gt; full_name: text&lt;br/&gt; customer_age: integer&lt;br/&gt; gender: text&lt;br/&gt; address: text&lt;br/&gt; customer_register_date: date&lt;br/&gt; customer_type: text&lt;/p&gt;" style="verticalAlign=top;align=left;overflow=fill;fontSize=14;fontFamily=Helvetica;html=1;rounded=0;shadow=0;comic=0;labelBackgroundColor=none;strokeWidth=1;">
      <mxGeometry x="-586" y="-63" width="261" height="879" as="geometry" />
    </mxCell>
    <mxCell id="node16" parent="1" vertex="1" value="&lt;p style=&quot;margin:0px;margin-top:4px;text-align:center;&quot;&gt;&lt;b&gt;int_fact_period_customers_daily&lt;/b&gt;&lt;/p&gt;&lt;hr size=&quot;1&quot;/&gt;&lt;p style=&quot;margin:0 0 0 4px;line-height:1.6;&quot;&gt; unique_id: text&lt;br/&gt; gen_date: date&lt;br/&gt; customer_id: text&lt;br/&gt; nav: bigint&lt;br/&gt; total_balance: bigint&lt;br/&gt; deposit: bigint&lt;br/&gt; withdraw: bigint&lt;br/&gt; total_loan: bigint&lt;br/&gt; new_loan: bigint&lt;br/&gt; total_saving: bigint&lt;br/&gt; new_saving: bigint&lt;br/&gt; customer_segment: text&lt;br/&gt; is_recommended_loan: integer&lt;br/&gt; recommended_loan_type: text&lt;br/&gt; is_recommended_savings: integer&lt;br/&gt; is_recommended_credit_card: integer&lt;br/&gt; recommended_credit_card_type: text&lt;br/&gt; full_name: text&lt;br/&gt; date_of_birth: text&lt;br/&gt; gender: text&lt;br/&gt; customer_register_date: date&lt;br/&gt; customer_type: text&lt;/p&gt;" style="verticalAlign=top;align=left;overflow=fill;fontSize=14;fontFamily=Helvetica;html=1;rounded=0;shadow=0;comic=0;labelBackgroundColor=none;strokeWidth=1;">
      <mxGeometry x="-45" y="1273" width="300" height="567" as="geometry" />
    </mxCell>
    <mxCell id="node5" parent="1" vertex="1" value="&lt;p style=&quot;margin:0px;margin-top:4px;text-align:center;&quot;&gt;&lt;b&gt;int_fact_savings&lt;/b&gt;&lt;/p&gt;&lt;hr size=&quot;1&quot;/&gt;&lt;p style=&quot;margin:0 0 0 4px;line-height:1.6;&quot;&gt; savings_id: text&lt;br/&gt; product_id: text&lt;br/&gt; product_name: text&lt;br/&gt; interest_rate: numeric&lt;br/&gt; promotion: text&lt;br/&gt; customer_id: text&lt;br/&gt; full_name: text&lt;br/&gt; age: integer&lt;br/&gt; gender: text&lt;br/&gt; deposit_amount: double precision&lt;br/&gt; opening_date: date&lt;br/&gt; maturity_date: date&lt;br/&gt; status: text&lt;br/&gt; created_at: timestamp&lt;br/&gt; updated_at: text&lt;/p&gt;" style="verticalAlign=top;align=left;overflow=fill;fontSize=14;fontFamily=Helvetica;html=1;rounded=0;shadow=0;comic=0;labelBackgroundColor=none;strokeWidth=1;">
      <mxGeometry x="881" y="-37" width="249" height="399" as="geometry" />
    </mxCell>
    <mxCell id="node9" parent="1" vertex="1" value="&lt;p style=&quot;margin:0px;margin-top:4px;text-align:center;&quot;&gt;&lt;b&gt;int_period_bank_metric_daily&lt;/b&gt;&lt;/p&gt;&lt;hr size=&quot;1&quot;/&gt;&lt;p style=&quot;margin:0 0 0 4px;line-height:1.6;&quot;&gt; txn_date: date&lt;br/&gt; transaction_amount: double precision&lt;/p&gt;" style="verticalAlign=top;align=left;overflow=fill;fontSize=14;fontFamily=Helvetica;html=1;rounded=0;shadow=0;comic=0;labelBackgroundColor=none;strokeWidth=1;">
      <mxGeometry x="507" y="499" width="276" height="94" as="geometry" />
    </mxCell>
    <mxCell id="node3" parent="1" vertex="1" value="&lt;p style=&quot;margin:0px;margin-top:4px;text-align:center;&quot;&gt;&lt;b&gt;stg_vpb_balance_transaction&lt;/b&gt;&lt;/p&gt;&lt;hr size=&quot;1&quot;/&gt;&lt;p style=&quot;margin:0 0 0 4px;line-height:1.6;&quot;&gt; transaction_id: text&lt;br/&gt; sender_account_no: text&lt;br/&gt; sender_bank: text&lt;br/&gt; txn_date: date&lt;br/&gt; txn_time: timestamp&lt;br/&gt; transaction_type: text&lt;br/&gt; status: text&lt;br/&gt; amount: double precision&lt;br/&gt; fee: double precision&lt;br/&gt; currency: text&lt;br/&gt; description: text&lt;br/&gt; rate: double precision&lt;/p&gt;" style="verticalAlign=top;align=left;overflow=fill;fontSize=14;fontFamily=Helvetica;html=1;rounded=0;shadow=0;comic=0;labelBackgroundColor=none;strokeWidth=1;">
      <mxGeometry x="896" y="413" width="274" height="327" as="geometry" />
    </mxCell>
    <mxCell id="node0" parent="1" vertex="1" value="&lt;p style=&quot;margin:0px;margin-top:4px;text-align:center;&quot;&gt;&lt;b&gt;stg_vpb_branch_atm&lt;/b&gt;&lt;/p&gt;&lt;hr size=&quot;1&quot;/&gt;&lt;p style=&quot;margin:0 0 0 4px;line-height:1.6;&quot;&gt; atm_id: text&lt;br/&gt; name: text&lt;br/&gt; vpb_branch: boolean&lt;br/&gt; is_atm: boolean&lt;br/&gt; is_cdm: boolean&lt;br/&gt; is_atm_247: boolean&lt;br/&gt; atm_247_label: text&lt;br/&gt; is_household: boolean&lt;br/&gt; is_sme: boolean&lt;br/&gt; address: text&lt;br/&gt; latitude: text&lt;br/&gt; longitude: text&lt;br/&gt; phone_number: text&lt;/p&gt;" style="verticalAlign=top;align=left;overflow=fill;fontSize=14;fontFamily=Helvetica;html=1;rounded=0;shadow=0;comic=0;labelBackgroundColor=none;strokeWidth=1;">
      <mxGeometry x="966" y="842" width="204" height="351" as="geometry" />
    </mxCell>
    <mxCell id="node8" parent="1" vertex="1" value="&lt;p style=&quot;margin:0px;margin-top:4px;text-align:center;&quot;&gt;&lt;b&gt;stg_vpb_branch_branch&lt;/b&gt;&lt;/p&gt;&lt;hr size=&quot;1&quot;/&gt;&lt;p style=&quot;margin:0 0 0 4px;line-height:1.6;&quot;&gt; branch_region: text&lt;br/&gt; branch_province: text&lt;br/&gt; branch_name: text&lt;br/&gt; branch_id: text&lt;br/&gt; branch_address: text&lt;/p&gt;" style="verticalAlign=top;align=left;overflow=fill;fontSize=14;fontFamily=Helvetica;html=1;rounded=0;shadow=0;comic=0;labelBackgroundColor=none;strokeWidth=1;">
      <mxGeometry x="510" y="278" width="230" height="159" as="geometry" />
    </mxCell>
    <mxCell id="node1" parent="1" vertex="1" value="&lt;p style=&quot;margin:0px;margin-top:4px;text-align:center;&quot;&gt;&lt;b&gt;stg_vpb_loan_loan&lt;/b&gt;&lt;/p&gt;&lt;hr size=&quot;1&quot;/&gt;&lt;p style=&quot;margin:0 0 0 4px;line-height:1.6;&quot;&gt; customer_id: text&lt;br/&gt; loan_id: text&lt;br/&gt; loan_service: text&lt;br/&gt; loan_type: text&lt;br/&gt; loan_amount: double precision&lt;br/&gt; interest_rate: double precision&lt;br/&gt; term: integer&lt;br/&gt; created_date: date&lt;br/&gt; start_date: date&lt;br/&gt; end_date: text&lt;br/&gt; status: text&lt;br/&gt; due_principal: numeric&lt;br/&gt; due_interest: numeric&lt;br/&gt; paid_principal: numeric&lt;br/&gt; paid_interest: numeric&lt;br/&gt; undue_principal: numeric&lt;br/&gt; undue_interest: numeric&lt;br/&gt; overdue_principal: numeric&lt;br/&gt; overdue_interest: numeric&lt;br/&gt; to_collect_principal: numeric&lt;br/&gt; to_collect_interest: numeric&lt;br/&gt; interest_on_overdue_loan: numeric&lt;br/&gt; unpaid_principal: numeric&lt;br/&gt; unpaid_interest: numeric&lt;br/&gt; description: text&lt;br/&gt; created_time: date&lt;br/&gt; release_time: text&lt;br/&gt; overdue_date: date&lt;br/&gt; disbursement_date: text&lt;br/&gt; modified_time: text&lt;/p&gt;" style="verticalAlign=top;align=left;overflow=fill;fontSize=14;fontFamily=Helvetica;html=1;rounded=0;shadow=0;comic=0;labelBackgroundColor=none;strokeWidth=1;">
      <mxGeometry x="655" y="1177" width="261" height="759" as="geometry" />
    </mxCell>
    <mxCell id="node13" parent="1" vertex="1" value="&lt;p style=&quot;margin:0px;margin-top:4px;text-align:center;&quot;&gt;&lt;b&gt;stg_vpb_loan_loan_payment&lt;/b&gt;&lt;/p&gt;&lt;hr size=&quot;1&quot;/&gt;&lt;p style=&quot;margin:0 0 0 4px;line-height:1.6;&quot;&gt; loan_payment_id: text&lt;br/&gt; scheduled_payment_date: date&lt;br/&gt; payment_amount: numeric&lt;br/&gt; principal_amount: numeric&lt;br/&gt; interest_amount: numeric&lt;br/&gt; paid_amount: numeric&lt;br/&gt; paid_date: date&lt;/p&gt;" style="verticalAlign=top;align=left;overflow=fill;fontSize=14;fontFamily=Helvetica;html=1;rounded=0;shadow=0;comic=0;labelBackgroundColor=none;strokeWidth=1;">
      <mxGeometry x="-297" y="401" width="266" height="207" as="geometry" />
    </mxCell>
    <mxCell id="node17" parent="1" vertex="1" value="&lt;p style=&quot;margin:0px;margin-top:4px;text-align:center;&quot;&gt;&lt;b&gt;stg_vpb_other_customers_nav_daily&lt;/b&gt;&lt;/p&gt;&lt;hr size=&quot;1&quot;/&gt;&lt;p style=&quot;margin:0 0 0 4px;line-height:1.6;&quot;&gt; unique_id: text&lt;br/&gt; gen_date: date&lt;br/&gt; customer_id: text&lt;br/&gt; nav: bigint&lt;br/&gt; total_balance: bigint&lt;br/&gt; deposit: bigint&lt;br/&gt; withdraw: bigint&lt;br/&gt; total_loan: bigint&lt;br/&gt; new_loan: bigint&lt;br/&gt; total_saving: bigint&lt;br/&gt; new_saving: bigint&lt;br/&gt; customer_segment: text&lt;br/&gt; is_recommended_loan: integer&lt;br/&gt; recommended_loan_type: text&lt;br/&gt; is_recommended_savings: integer&lt;br/&gt; is_recommended_credit_card: integer&lt;br/&gt; recommended_credit_card_type: text&lt;/p&gt;" style="verticalAlign=top;align=left;overflow=fill;fontSize=14;fontFamily=Helvetica;html=1;rounded=0;shadow=0;comic=0;labelBackgroundColor=none;strokeWidth=1;">
      <mxGeometry x="-200" y="673" width="331" height="447" as="geometry" />
    </mxCell>
    <mxCell id="node2" parent="1" vertex="1" value="&lt;p style=&quot;margin:0px;margin-top:4px;text-align:center;&quot;&gt;&lt;b&gt;stg_vpb_savings_savings_account&lt;/b&gt;&lt;/p&gt;&lt;hr size=&quot;1&quot;/&gt;&lt;p style=&quot;margin:0 0 0 4px;line-height:1.6;&quot;&gt; savings_id: text&lt;br/&gt; product_id: text&lt;br/&gt; customer_id: text&lt;br/&gt; deposit_amount: double precision&lt;br/&gt; opening_date: date&lt;br/&gt; maturity_date: date&lt;br/&gt; status: text&lt;br/&gt; created_at: timestamp&lt;br/&gt; updated_at: text&lt;br/&gt; seller_id: text&lt;/p&gt;" style="verticalAlign=top;align=left;overflow=fill;fontSize=14;fontFamily=Helvetica;html=1;rounded=0;shadow=0;comic=0;labelBackgroundColor=none;strokeWidth=1;">
      <mxGeometry x="467" y="-63" width="316" height="279" as="geometry" />
    </mxCell>
    <mxCell id="node14" parent="1" vertex="1" value="&lt;p style=&quot;margin:0px;margin-top:4px;text-align:center;&quot;&gt;&lt;b&gt;stg_vpb_savings_savings_account_transaction&lt;/b&gt;&lt;/p&gt;&lt;hr size=&quot;1&quot;/&gt;&lt;p style=&quot;margin:0 0 0 4px;line-height:1.6;&quot;&gt; transaction_id: text&lt;br/&gt; savings_id: text&lt;br/&gt; transaction_date: date&lt;br/&gt; transaction_type: text&lt;br/&gt; transaction_amount: double precision&lt;br/&gt; balance_after: double precision&lt;br/&gt; created_at: text&lt;br/&gt; updated_at: text&lt;br/&gt; description: text&lt;br/&gt; teller_id: text&lt;br/&gt; channel: text&lt;/p&gt;" style="verticalAlign=top;align=left;overflow=fill;fontSize=14;fontFamily=Helvetica;html=1;rounded=0;shadow=0;comic=0;labelBackgroundColor=none;strokeWidth=1;">
      <mxGeometry x="-3" y="305" width="416" height="303" as="geometry" />
    </mxCell>
    <mxCell id="node12" parent="1" vertex="1" value="&lt;p style=&quot;margin:0px;margin-top:4px;text-align:center;&quot;&gt;&lt;b&gt;stg_vpb_savings_savings_product&lt;/b&gt;&lt;/p&gt;&lt;hr size=&quot;1&quot;/&gt;&lt;p style=&quot;margin:0 0 0 4px;line-height:1.6;&quot;&gt; product_id: text&lt;br/&gt; product_name: text&lt;br/&gt; min_term: integer&lt;br/&gt; max_term: integer&lt;br/&gt; interest_rate: numeric&lt;br/&gt; min_deposit: double precision&lt;br/&gt; deposit_method: text&lt;br/&gt; interest_payment: text&lt;br/&gt; promotion: text&lt;br/&gt; created_at: timestamp&lt;br/&gt; updated_at: text&lt;/p&gt;" style="verticalAlign=top;align=left;overflow=fill;fontSize=14;fontFamily=Helvetica;html=1;rounded=0;shadow=0;comic=0;labelBackgroundColor=none;strokeWidth=1;">
      <mxGeometry x="-231" y="-40" width="313" height="303" as="geometry" />
    </mxCell>
    <mxCell id="node11" parent="1" vertex="1" value="&lt;p style=&quot;margin:0px;margin-top:4px;text-align:center;&quot;&gt;&lt;b&gt;stg_vpb_user_account&lt;/b&gt;&lt;/p&gt;&lt;hr size=&quot;1&quot;/&gt;&lt;p style=&quot;margin:0 0 0 4px;line-height:1.6;&quot;&gt; account_id: text&lt;br/&gt; customer_id: text&lt;br/&gt; account_number: text&lt;br/&gt; account_type: text&lt;br/&gt; pin: text&lt;br/&gt; cvv: bigint&lt;br/&gt; opened_date: date&lt;br/&gt; closed_date: text&lt;br/&gt; account_status: text&lt;br/&gt; branch_id: text&lt;/p&gt;" style="verticalAlign=top;align=left;overflow=fill;fontSize=14;fontFamily=Helvetica;html=1;rounded=0;shadow=0;comic=0;labelBackgroundColor=none;strokeWidth=1;">
      <mxGeometry x="176" y="-63" width="219" height="279" as="geometry" />
    </mxCell>
    <mxCell id="node10" parent="1" vertex="1" value="&lt;p style=&quot;margin:0px;margin-top:4px;text-align:center;&quot;&gt;&lt;b&gt;stg_vpb_user_customer&lt;/b&gt;&lt;/p&gt;&lt;hr size=&quot;1&quot;/&gt;&lt;p style=&quot;margin:0 0 0 4px;line-height:1.6;&quot;&gt; customer_id: text&lt;br/&gt; identity_id: text&lt;br/&gt; last_name: text&lt;br/&gt; first_name: text&lt;br/&gt; date_of_birth: text&lt;br/&gt; age: integer&lt;br/&gt; gender: text&lt;br/&gt; address: text&lt;br/&gt; status: text&lt;br/&gt; hometown: text&lt;br/&gt; phone: text&lt;br/&gt; email: text&lt;br/&gt; register_date: date&lt;br/&gt; customer_type: text&lt;/p&gt;" style="verticalAlign=top;align=left;overflow=fill;fontSize=14;fontFamily=Helvetica;html=1;rounded=0;shadow=0;comic=0;labelBackgroundColor=none;strokeWidth=1;">
      <mxGeometry x="331" y="709" width="229" height="375" as="geometry" />
    </mxCell>
  </root>
</mxGraphModel>